<?xml version="1.0" encoding="UTF-8" standalone="no"?>
<svg
   xmlns:dc="http://purl.org/dc/elements/1.1/"
   xmlns:cc="http://creativecommons.org/ns#"
   xmlns:rdf="http://www.w3.org/1999/02/22-rdf-syntax-ns#"
   xmlns:svg="http://www.w3.org/2000/svg"
   xmlns="http://www.w3.org/2000/svg"
   xmlns:sodipodi="http://sodipodi.sourceforge.net/DTD/sodipodi-0.dtd"
   xmlns:inkscape="http://www.inkscape.org/namespaces/inkscape"
   version="1.1"
   id="svg2"
   xml:space="preserve"
   width="816"
   height="1056"
   viewBox="0 0 816 1056"
   sodipodi:docname="amazon-fire-tv.eps"><metadata
     id="metadata8"><rdf:RDF><cc:Work
         rdf:about=""><dc:format>image/svg+xml</dc:format><dc:type
           rdf:resource="http://purl.org/dc/dcmitype/StillImage" /></cc:Work></rdf:RDF></metadata><defs
     id="defs6"><clipPath
       clipPathUnits="userSpaceOnUse"
       id="clipPath20"><path
         d="m 3276.81,4066.83 h 43.44 l -8.3,-25.77 h -35.14 v -144.2 h -32.11 v 144.2 h -22.72 v 25.77 h 22.72 c 0,10.34 0,20.47 0,30.82 0,20.56 8.26,35.31 20.69,44.17 16.73,12.08 43.93,11.38 61.16,2.93 l -6.67,-25.64 c -19.19,7.34 -43.07,7.45 -43.07,-23.94 0,-9.44 0,-18.9 0,-28.34 z m 292.42,3.61 c 46.55,0 70.35,-35.59 70.55,-83.88 0.02,-6.06 -0.05,-5.28 -0.05,-11.31 -36.14,0 -72.85,0 -108.98,0 1.78,-16.43 5.23,-29.84 15.65,-39.91 17.64,-17.09 44.55,-20.89 80.1,-3.27 l 9.53,-22.12 c -26.49,-17.66 -76.39,-23.13 -105.6,-0.54 -19.3,13.82 -31.72,40.75 -31.72,73.23 0,54.77 30.49,87.8 70.52,87.8 z m 0.34,-25.09 c 24.44,0 37.54,-23.62 37.54,-46.27 l -76.13,-0.19 c 0,26.22 17.03,46.46 38.59,46.46 z m -161.51,21.08 h 26.98 l 3.28,-20.97 c 21.84,25.16 47.98,30.66 67.8,20.14 l -10.88,-28.24 c -19.83,10.88 -37.25,0.91 -55.44,-17.57 v -122.93 h -31.74 z m -60.29,0 h 31.82 v -169.57 h -31.82 z m 15.92,75.53 c 11.46,0 20.75,-9.27 20.75,-20.7 0,-11.42 -9.29,-20.69 -20.75,-20.69 -11.46,0 -20.75,9.27 -20.75,20.69 0,11.43 9.29,20.7 20.75,20.7 z"
         clip-rule="evenodd"
         id="path18" /></clipPath><linearGradient
       x1="343.08801"
       y1="390.20599"
       x2="343.08801"
       y2="410.431"
       gradientUnits="userSpaceOnUse"
       gradientTransform="scale(10)"
       spreadMethod="pad"
       id="linearGradient28"><stop
         style="stop-opacity:1;stop-color:#ec2026"
         offset="0"
         id="stop22" /><stop
         style="stop-opacity:1;stop-color:#f04821"
         offset="0.5"
         id="stop24" /><stop
         style="stop-opacity:1;stop-color:#f47320"
         offset="1"
         id="stop26" /></linearGradient></defs><sodipodi:namedview
     pagecolor="#ffffff"
     bordercolor="#666666"
     borderopacity="1"
     objecttolerance="10"
     gridtolerance="10"
     guidetolerance="10"
     inkscape:pageopacity="0"
     inkscape:pageshadow="2"
     inkscape:window-width="640"
     inkscape:window-height="480"
     id="namedview4" /><g
     id="g10"
     inkscape:groupmode="layer"
     inkscape:label="ink_ext_XXXXXX"
     transform="matrix(1.3333333,0,0,-1.3333333,0,1056)"><g
       id="g12"
       transform="scale(0.1)"><g
         id="g14"><g
           id="g16"
           clip-path="url(#clipPath20)"><path
             d="m 3276.81,4066.83 h 43.44 l -8.3,-25.77 h -35.14 v -144.2 h -32.11 v 144.2 h -22.72 v 25.77 h 22.72 c 0,10.34 0,20.47 0,30.82 0,20.56 8.26,35.31 20.69,44.17 16.73,12.08 43.93,11.38 61.16,2.93 l -6.67,-25.64 c -19.19,7.34 -43.07,7.45 -43.07,-23.94 0,-9.44 0,-18.9 0,-28.34 z m 292.42,3.61 c 46.55,0 70.35,-35.59 70.55,-83.88 0.02,-6.06 -0.05,-5.28 -0.05,-11.31 -36.14,0 -72.85,0 -108.98,0 1.78,-16.43 5.23,-29.84 15.65,-39.91 17.64,-17.09 44.55,-20.89 80.1,-3.27 l 9.53,-22.12 c -26.49,-17.66 -76.39,-23.13 -105.6,-0.54 -19.3,13.82 -31.72,40.75 -31.72,73.23 0,54.77 30.49,87.8 70.52,87.8 z m 0.34,-25.09 c 24.44,0 37.54,-23.62 37.54,-46.27 l -76.13,-0.19 c 0,26.22 17.03,46.46 38.59,46.46 z m -161.51,21.08 h 26.98 l 3.28,-20.97 c 21.84,25.16 47.98,30.66 67.8,20.14 l -10.88,-28.24 c -19.83,10.88 -37.25,0.91 -55.44,-17.57 v -122.93 h -31.74 z m -60.29,0 h 31.82 v -169.57 h -31.82 z m 15.92,75.53 c 11.46,0 20.75,-9.27 20.75,-20.7 0,-11.42 -9.29,-20.69 -20.75,-20.69 -11.46,0 -20.75,9.27 -20.75,20.69 0,11.43 9.29,20.7 20.75,20.7"
             style="fill:url(#linearGradient28);fill-opacity:1;fill-rule:nonzero;stroke:none"
             id="path30" /></g></g><path
         d="m 2781.15,3834.75 c -58.17,-42.93 -142.51,-65.76 -215.14,-65.76 -101.78,0 -193.44,37.62 -262.8,100.26 -5.44,4.91 -0.59,11.63 5.96,7.82 74.83,-43.54 167.38,-69.77 262.96,-69.77 64.47,0 135.34,13.38 200.56,41.05 9.83,4.17 18.08,-6.49 8.46,-13.6"
         style="fill:#000000;fill-opacity:1;fill-rule:evenodd;stroke:none"
         id="path32" /><path
         d="m 2805.36,3862.39 c -7.45,9.53 -49.18,4.52 -67.94,2.27 -5.68,-0.68 -6.56,4.28 -1.44,7.88 33.3,23.38 87.86,16.63 94.2,8.8 6.39,-7.89 -1.68,-62.61 -32.88,-88.71 -4.8,-4.01 -9.37,-1.87 -7.24,3.43 7.02,17.54 22.75,56.8 15.3,66.33"
         style="fill:#000000;fill-opacity:1;fill-rule:evenodd;stroke:none"
         id="path34" /><path
         d="m 2738.74,4037.76 v 22.73 c 0.02,3.46 2.62,5.76 5.76,5.75 l 101.86,0.01 c 3.26,0 5.88,-2.37 5.88,-5.73 v -19.49 c -0.04,-3.27 -2.79,-7.54 -7.67,-14.31 l -52.77,-75.33 c 19.58,0.46 40.31,-2.48 58.1,-12.48 4.01,-2.26 5.09,-5.59 5.41,-8.87 v -24.25 c 0,-3.34 -3.66,-7.21 -7.51,-5.19 -31.35,16.42 -72.95,18.21 -107.62,-0.21 -3.54,-1.88 -7.25,1.93 -7.25,5.27 v 23.05 c 0,3.7 0.07,10 3.79,15.62 l 61.13,87.71 h -53.22 c -3.25,0 -5.87,2.32 -5.89,5.72"
         style="fill:#000000;fill-opacity:1;fill-rule:evenodd;stroke:none"
         id="path36" /><path
         d="m 2367.19,3895.82 h -30.99 c -2.95,0.19 -5.31,2.4 -5.55,5.24 l 0.03,159.04 c 0,3.19 2.67,5.72 5.98,5.72 l 28.86,0.02 c 3.02,-0.16 5.44,-2.44 5.63,-5.35 v -20.76 h 0.58 c 7.52,20.08 21.7,29.45 40.78,29.45 19.38,0 31.53,-9.37 40.21,-29.45 7.53,20.08 24.59,29.45 42.82,29.45 13.01,0 27.19,-5.35 35.86,-17.4 9.84,-13.39 7.82,-32.8 7.82,-49.87 l -0.03,-100.37 c 0,-3.17 -2.67,-5.72 -5.98,-5.72 h -30.95 c -3.11,0.2 -5.56,2.66 -5.56,5.71 v 84.32 c 0,6.68 0.57,23.42 -0.88,29.78 -2.31,10.71 -9.25,13.73 -18.21,13.73 -7.53,0 -15.34,-5.02 -18.53,-13.06 -3.17,-8.03 -2.89,-21.41 -2.89,-30.45 v -84.31 c 0,-3.17 -2.67,-5.72 -5.97,-5.72 h -30.95 c -3.12,0.2 -5.57,2.66 -5.57,5.71 l -0.03,84.32 c 0,17.73 2.89,43.83 -19.08,43.83 -22.29,0 -21.41,-25.43 -21.41,-43.83 l -0.02,-84.31 c 0,-3.17 -2.67,-5.72 -5.97,-5.72"
         style="fill:#000000;fill-opacity:1;fill-rule:evenodd;stroke:none"
         id="path38" /><path
         d="m 2940.21,4036.71 c -22.85,0 -24.3,-31.12 -24.3,-50.53 0,-19.41 -0.28,-60.91 24.02,-60.91 24.01,0 25.16,33.47 25.16,53.87 0,13.39 -0.58,29.46 -4.63,42.18 -3.48,11.05 -10.42,15.39 -20.25,15.39 z m -0.28,32.47 c 45.99,0 70.86,-39.5 70.86,-89.7 0,-48.52 -27.47,-87.02 -70.86,-87.02 -45.13,0 -69.72,39.5 -69.72,88.7 0,49.53 24.87,88.02 69.72,88.02"
         style="fill:#000000;fill-opacity:1;fill-rule:evenodd;stroke:none"
         id="path40" /><path
         d="m 3070.44,3895.82 h -30.88 c -3.1,0.2 -5.55,2.66 -5.55,5.71 l -0.06,159.1 c 0.26,2.92 2.84,5.19 5.96,5.19 l 28.74,0.02 c 2.71,-0.15 4.94,-1.99 5.51,-4.46 v -24.33 h 0.58 c 8.68,21.76 20.83,32.13 42.23,32.13 13.89,0 27.49,-5.02 36.16,-18.74 8.1,-12.72 8.1,-34.14 8.1,-49.53 v -100.09 c -0.34,-2.81 -2.87,-5 -5.94,-5 h -31.06 c -2.87,0.18 -5.19,2.29 -5.52,5 v 86.36 c 0,17.4 2.03,42.84 -19.38,42.84 -7.53,0 -14.46,-5.02 -17.94,-12.71 -4.34,-9.71 -4.92,-19.41 -4.92,-30.13 v -85.64 c -0.05,-3.17 -2.73,-5.72 -6.03,-5.72"
         style="fill:#000000;fill-opacity:1;fill-rule:evenodd;stroke:none"
         id="path42" /><path
         d="m 2688.78,3896.22 c -2.05,-1.85 -5,-1.97 -7.32,-0.72 -10.28,8.55 -12.13,12.5 -17.76,20.64 -17.01,-17.32 -29.06,-22.52 -51.09,-22.52 -26.09,0 -46.38,16.1 -46.38,48.3 0,25.15 13.63,42.26 33.04,50.65 16.82,7.37 40.3,8.72 58.28,10.73 v 4.03 c 0,7.38 0.58,16.09 -3.77,22.47 -3.78,5.7 -11.02,8.05 -17.4,8.05 -11.82,0 -22.33,-6.05 -24.91,-18.6 -0.54,-2.8 -2.57,-5.57 -5.38,-5.71 l -30.04,3.26 c -2.53,0.57 -5.35,2.6 -4.62,6.48 6.91,36.43 39.81,47.44 69.29,47.44 15.09,0 34.8,-4.02 46.68,-15.43 15.08,-14.09 13.63,-32.87 13.63,-53.34 v -48.27 c 0,-14.53 6.03,-20.89 11.7,-28.72 1.97,-2.82 2.41,-6.17 -0.11,-8.23 -6.32,-5.31 -17.57,-15.08 -23.76,-20.58 z m -31.23,75.55 c 0,-12.08 0.28,-22.13 -5.81,-32.88 -4.92,-8.71 -12.75,-14.08 -21.45,-14.08 -11.88,0 -18.84,9.06 -18.84,22.48 0,26.39 23.68,31.19 46.1,31.19 v -6.71"
         style="fill:#000000;fill-opacity:1;fill-rule:evenodd;stroke:none"
         id="path44" /><path
         d="m 2282.55,3896.22 c -2.05,-1.85 -5.01,-1.97 -7.32,-0.72 -10.3,8.55 -12.14,12.5 -17.76,20.64 -17.02,-17.32 -29.06,-22.52 -51.09,-22.52 -26.09,0 -46.38,16.1 -46.38,48.3 0,25.15 13.62,42.26 33.04,50.65 16.81,7.37 40.3,8.72 58.26,10.73 v 4.03 c 0,7.38 0.59,16.09 -3.76,22.47 -3.77,5.7 -11.02,8.05 -17.39,8.05 -11.82,0 -22.33,-6.05 -24.91,-18.6 -0.53,-2.8 -2.57,-5.57 -5.38,-5.71 l -30.04,3.26 c -2.53,0.57 -5.36,2.6 -4.62,6.48 6.9,36.43 39.8,47.44 69.3,47.44 15.07,0 34.79,-4.02 46.67,-15.43 15.07,-14.09 13.63,-32.87 13.63,-53.34 v -48.27 c 0,-14.53 6.02,-20.89 11.68,-28.72 1.98,-2.82 2.43,-6.17 -0.09,-8.23 -6.33,-5.31 -17.59,-15.08 -23.77,-20.58 z m -31.25,75.55 c 0,-12.08 0.3,-22.13 -5.79,-32.88 -4.92,-8.71 -12.76,-14.08 -21.45,-14.08 -11.88,0 -18.85,9.06 -18.85,22.48 0,26.39 23.68,31.19 46.09,31.19 v -6.71"
         style="fill:#000000;fill-opacity:1;fill-rule:evenodd;stroke:none"
         id="path46" /><path
         d="m 3892.18,3898.09 67.82,168.04 h -33.34 l -29.63,-77.19 c -6.24,-16.1 -12.23,-31.6 -17.47,-47.7 -5.22,15.91 -11.18,31.68 -17.4,47.7 l -29.74,77.19 h -33.46 l 68.06,-168.04 h 25.16"
         style="fill:#000000;fill-opacity:1;fill-rule:evenodd;stroke:none"
         id="path48" /><path
         d="m 3791.28,4040.85 h -44.9 v -142.76 h -30.96 v 142.76 h -48.88 v 25.28 h 132.81 l -8.07,-25.28"
         style="fill:#000000;fill-opacity:1;fill-rule:evenodd;stroke:none"
         id="path50" /></g></g></svg>
