<?xml version="1.0" encoding="iso-8859-1"?>
<!-- Generator: Adobe Illustrator 19.0.0, SVG Export Plug-In . SVG Version: 6.00 Build 0)  -->
<svg version="1.1" id="Capa_1" xmlns="http://www.w3.org/2000/svg" xmlns:xlink="http://www.w3.org/1999/xlink" x="0px" y="0px"
	 viewBox="0 0 512 512" style="enable-background:new 0 0 512 512;" xml:space="preserve">
<g>
	<g>
		<path d="M256,0C177.874,0,107.926,36.391,61.114,91.895l63.721,133.217c13.234-55.907,59.726-97.188,116.59-103.336l0.029-0.002
			l214.797-23.139C409.521,39.298,337.218,0,256,0z"/>
	</g>
</g>
<g>
	<g>
		<path d="M256,151c-58.53,0-105,47.721-105,105c0,57.001,46.027,105,105,105c57.096,0,105-46.368,105-105
			C361,198.109,313.891,151,256,151z M256,301c-25.023,0-45-20.364-45-45c0-24.456,19.829-45,45-45c24.814,0,45,20.186,45,45
			C301,281.574,279.948,301,256,301z"/>
	</g>
</g>
<g>
	<g>
		<path d="M256,391c-49.982,0-96.824-26.816-121.846-76.86L40.018,119.429C14.813,158.963,0,205.739,0,256
			c0,117.589,81.107,217.561,189.538,246.911l93.776-114.945C274.398,389.808,265.291,391,256,391z"/>
	</g>
</g>
<g>
	<g>
		<path d="M476.43,126.742l-147.816,15.815C366.021,166.584,391,208.33,391,256c0,28.857-9.009,56.411-26.06,79.673
			c-3.488,4.766,7.288-8.602-142.037,173.928C233.766,511.019,244.759,512,256,512c140.61,0,256-115.39,256-256
			C512,208.795,498.879,164.702,476.43,126.742z"/>
	</g>
</g>
<g>
</g>
<g>
</g>
<g>
</g>
<g>
</g>
<g>
</g>
<g>
</g>
<g>
</g>
<g>
</g>
<g>
</g>
<g>
</g>
<g>
</g>
<g>
</g>
<g>
</g>
<g>
</g>
<g>
</g>
</svg>
