<svg xmlns="http://www.w3.org/2000/svg" data-name="Layer 1" viewBox="0 0 32 32"><path fill="#222f3e" d="M29,24.41H3a3,3,0,0,1-3-3V5.15a3,3,0,0,1,3-3H29a3,3,0,0,1,3,3V21.42A3,3,0,0,1,29,24.41ZM1.63,20.07v1.36A1.36,1.36,0,0,0,3,22.78H29a1.36,1.36,0,0,0,1.36-1.36V5.15A1.36,1.36,0,0,0,29,3.8H3A1.36,1.36,0,0,0,1.63,5.15V18.44H26.85a.81.81,0,0,1,0,1.63Z"/><path fill="#f39c12" d="M30.1 29.83H1.9a.81.81 0 1 1 0-1.63H4.34V26.85a.81.81 0 0 1 1.63 0V28.2H26V26.85a.81.81 0 0 1 1.63 0V28.2H30.1a.81.81 0 0 1 0 1.63zM14.48 15.23a2.33 2.33 0 0 1-2.32-2.33V9.41a2.28 2.28 0 0 1 1.17-2 2.3 2.3 0 0 1 2.31 0l3 1.75a2.32 2.32 0 0 1 0 4h0l-3 1.74A2.36 2.36 0 0 1 14.48 15.23zm0-6.51a.7.7 0 0 0-.69.7V12.9a.66.66 0 0 0 .34.6.69.69 0 0 0 .71 0l3-1.74a.7.7 0 0 0 0-1.2l-3-1.74A.71.71 0 0 0 14.49 8.72z"/></svg>