<?xml version="1.0" encoding="utf-8"?>
<!-- Generator: Adobe Illustrator 23.0.1, SVG Export Plug-In . SVG Version: 6.00 Build 0)  -->
<svg version="1.1" id="Livello_1" xmlns="http://www.w3.org/2000/svg" xmlns:xlink="http://www.w3.org/1999/xlink" x="0px" y="0px"
	 viewBox="0 0 1110.3 950.812" enable-background="new 0 0 1110.3 950.812" xml:space="preserve">
<g>
	<g>
		<path fill="#FFFFFF" d="M550,192.513c-51.1,0-92.6,41.4-92.6,92.5s41.4,92.6,92.5,92.6c51.1,0,92.6-41.4,92.6-92.5l0,0
			C642.5,233.913,601.1,192.513,550,192.513"/>
		<path fill="#901480" d="M354.4,121.713c-0.8,1.6-0.2,3.5,1.3,4.3l0,0l98.1,57l0.2,0.1c1.1,0.6,2.4,0.5,3.3-0.2
			c0.3-0.2,0.6-0.5,0.8-0.8c0.1-0.1,0.2-0.3,0.3-0.5c18.9-33.5,51.8-56.7,89.7-63.4c0.1,0,0.3,0,0.4-0.1c0.4-0.1,0.8-0.3,1.1-0.5
			c1-0.7,1.5-1.9,1.3-3.1v-0.2l-20.8-111.5v-0.2c-0.1-0.5-0.3-0.9-0.6-1.3c-0.7-0.9-1.8-1.4-3-1.3l-0.3,0.1l0,0
			C453.9,13.313,390.9,57.713,354.4,121.713"/>
		<path fill="#004AD0" d="M298.4,337.113c0.5,1.1,1.5,1.8,2.6,1.9c0.5,0,1.1,0,1.5-0.3l105.8-40.8l0.2-0.1c1.1-0.5,1.9-1.5,1.9-2.7
			c0-0.4,0-0.8-0.1-1.1c0-0.2-0.1-0.3-0.2-0.5c-14.3-35.7-11.8-75.9,6.7-109.6c0.1-0.1,0.1-0.2,0.2-0.3c0.2-0.4,0.3-0.8,0.3-1.2
			c0.1-1.2-0.5-2.4-1.6-3l-0.2-0.1l-99.9-53.6l-0.2-0.1c-0.4-0.2-0.9-0.3-1.3-0.3c-1.1,0-2.2,0.5-2.8,1.5c0,0.1-0.1,0.2-0.1,0.2l0,0
			C276.1,191.613,271.4,268.613,298.4,337.113"/>
		<path fill="#0090FF" d="M432.9,514.113c1.1,0.3,2.3-0.1,3.1-0.9c0.4-0.4,0.6-0.9,0.8-1.4l33.7-108.3l0.1-0.2
			c0.3-1.2,0-2.4-0.9-3.2c-0.3-0.3-0.6-0.5-1-0.6c-0.2-0.1-0.3-0.1-0.5-0.2c-36.8-11-66.8-37.9-81.7-73.3c0-0.1-0.1-0.2-0.1-0.4
			c-0.2-0.4-0.4-0.7-0.7-1c-0.9-0.8-2.2-1-3.3-0.6l-0.2,0.1l-104.1,45l-0.2,0.1c-0.4,0.2-0.8,0.5-1.1,0.8c-0.7,0.9-0.9,2.1-0.6,3.1
			c0,0.1,0.1,0.2,0.1,0.2l0,0C305.1,441.213,362.4,492.713,432.9,514.113"/>
		<path fill="#00AA00" d="M654,519.313c0.9-0.7,1.4-1.8,1.3-3c-0.1-0.5-0.3-1-0.6-1.5l-63.2-94.2l-0.2-0.2c-0.7-1-1.9-1.5-3.1-1.3
			c-0.4,0.1-0.7,0.2-1.1,0.4c-0.2,0.1-0.3,0.2-0.4,0.3c-31.7,21.8-71.4,28.3-108.4,17.7c-0.1-0.1-0.2-0.1-0.4-0.1
			c-0.4-0.1-0.8-0.1-1.2,0c-1.2,0.2-2.2,1.1-2.5,2.2l-0.1,0.2l-30.2,109.3v0.2c-0.4,1.6,0.4,3.2,2,3.8l0.3,0.1l0,0
			C517.1,573.213,593.2,560.813,654,519.313"/>
		<path fill="#FFE500" d="M798,350.413c0-1.8-1.3-3.2-3.1-3.3l-113-8.8h-0.2c-1.2-0.1-2.3,0.6-2.9,1.6c-0.2,0.3-0.3,0.7-0.3,1.1
			c0,0.2,0,0.4,0,0.5c-2.5,38.4-22.1,73.6-53.3,96c-0.1,0.1-0.2,0.1-0.3,0.2c-0.3,0.3-0.6,0.6-0.8,0.9c-0.6,1.1-0.5,2.4,0.2,3.4
			l0.1,0.2l67,91.5l0.1,0.2c0.3,0.4,0.6,0.7,1.1,0.9c1,0.5,2.2,0.5,3.2-0.1l0.2-0.2l0,0C755.5,491.313,792.9,423.913,798,350.413"/>
		<path fill="#FF7D00" d="M755.3,132.213c-0.9-0.8-2.1-1-3.2-0.6c-0.5,0.2-0.9,0.5-1.3,0.9l-78,82.3l-0.2,0.2
			c-0.8,0.9-1,2.2-0.6,3.3c0.1,0.4,0.3,0.7,0.6,1c0.1,0.1,0.3,0.3,0.4,0.4c28.2,26.1,43.3,63.5,41,101.9c0,0.1,0,0.3,0,0.4
			c0,0.4,0.1,0.8,0.2,1.2c0.5,1.1,1.5,1.9,2.7,2h0.2l113.3,5.5h0.2c0.5,0,0.9-0.1,1.4-0.3c1-0.4,1.8-1.4,1.9-2.5c0-0.1,0-0.2,0-0.3
			l0,0C837.9,254.113,809.1,182.613,755.3,132.213"/>
		<path fill="#FF0000" d="M557,30.813c-1.7,0.3-2.8,2-2.5,3.7l0,0l16.6,112.2v0.2c0.3,1.6,1.7,2.7,3.4,2.6c0.2,0,0.4,0,0.5-0.1
			c38-6.1,76.7,5.1,105.5,30.6c0.1,0.1,0.2,0.2,0.3,0.3c0.3,0.2,0.7,0.4,1.1,0.6c1.2,0.3,2.4,0,3.2-0.9l0.2-0.2l74.2-85.7l0.1-0.2
			c0.3-0.4,0.5-0.8,0.6-1.2c0.3-1.1,0-2.3-0.8-3.1l-0.2-0.2l0,0C703.8,41.013,629.8,19.513,557,30.813"/>
		<path d="M550,191.213c-51.8,0-93.8,42-93.8,93.9c0,51.8,42,93.8,93.9,93.8c51.8,0,93.8-42,93.8-93.8
			C643.8,233.213,601.9,191.313,550,191.213 M618.2,337.913c1.4-3.8,1.9-8.3,2.3-11.7c-1.9,1.8-4,3.5-6.1,5.1
			c-6,4.4-12.8,7.5-20.1,9.2l-18.1-19.8l-0.2,0.2l13.2,23.2c-3.8,6.5-8.9,12.2-15.1,16.5c-2.1,1.6-4.4,3-6.7,4.2
			c3.4,0.6,7.7,1.6,11.8,1.4c-18.8,6.7-39.3,6.7-58.1,0c4.1,0.2,8.4-0.8,11.8-1.4c-2.3-1.2-4.6-2.7-6.7-4.2
			c-6.1-4.4-11.3-10-15.1-16.5l13.2-23.3l-0.2-0.2l-18.2,19.8c-7.3-1.6-14.1-4.7-20.1-9.1c-2.1-1.6-4.2-3.3-6.1-5.1
			c0.5,3.5,0.9,7.9,2.4,11.8c-11.8-15.1-18.2-33.8-18.2-52.9c0-1,0-1.9,0.1-2.8c1,4,3.4,8.1,5.1,11.2c0.5-2.6,1.1-5.2,1.9-7.7
			c2.3-7.2,6.1-13.9,11.1-19.5l26,5.3l0.1-0.3l-24.3-11c-0.7-7.4,0.2-14.9,2.5-21.9c0.8-2.5,1.8-5,3-7.4c-3.3,1.6-7.8,3.5-11,6.3
			c11.5-17.1,28.6-29.6,48.5-35.2c-3.8,2.2-7,5.9-9.6,8.6c2.6-0.4,5.3-0.5,7.9-0.5c7.5-0.1,15,1.5,21.8,4.5l3,26.2h0.3l3-26.3
			c6.9-3,14.3-4.5,21.8-4.5c2.7,0,5.3,0.2,7.9,0.5c-2.6-2.7-5.8-6.4-9.6-8.6c19.8,5.6,37,18,48.4,35.1c-3.2-2.8-7.6-4.7-10.9-6.3
			c1.2,2.4,2.2,4.8,3,7.4c2.3,7.1,3.2,14.5,2.5,21.9l-24.2,11.1l0.1,0.3l26-5.3c5.1,5.6,8.8,12.3,11.1,19.5c0.8,2.5,1.5,5.1,1.9,7.7
			c1.7-3.1,4-7.1,5.1-11.1c0,0.9,0.1,1.8,0.1,2.7C636.4,304.213,630,322.813,618.2,337.913"/>
		<polygon points="512.1,272.713 526.6,317.213 573.5,317.213 588,272.713 550.1,245.113 		"/>
	</g>
	<g>
		<polygon points="277.8,625.413 277.8,751.313 350,751.313 350,722.713 310.4,722.713 310.4,625.413 		"/>
		<path d="M410.2,676.713c-14.5,0-23.9,10.8-23.9,24.2c0,14,8.8,25.5,22.9,25.5c13.6,0,24.9-10,24.9-24.7
			S423.6,676.713,410.2,676.713 M355.4,701.313c0-28.1,20.8-52.9,48.7-52.9c12.2,0,19.9,4.1,28.9,12.3v-10.3h30.1v100.9h-30.6v-9.9
			c-8,7.9-18.8,12.4-30.1,12.3C374.5,753.813,355.4,733.713,355.4,701.313"/>
		<polygon points="553.4,751.313 481.1,751.313 481.1,625.413 513.8,625.413 513.8,722.713 553.4,722.713 		"/>
		<path d="M597.4,751.313h-30.5v-100.9h30.4L597.4,751.313L597.4,751.313z M564,624.813c-0.1-10.2,8.1-18.5,18.2-18.6
			c10.2-0.1,18.5,8.1,18.6,18.2c0,10.3-8.4,18.7-18.7,18.7H582c-9.9,0-18-8.1-18-18C564,625.013,564,624.913,564,624.813"/>
		<path d="M661.3,674.513c-14.2,0-21.3,11.7-21.3,24.2c0,13,7.7,23.7,21.1,23.7c15.2,0,23.4-12.2,23.4-23.5
			C684.5,685.413,677,674.513,661.3,674.513 M610.4,698.913c0-27.3,17.3-50.5,43.8-50.5c12.8,0,21.4,4.1,30.1,13.3v-11.3h29.1v88.9
			c0,31.2-23.4,47.5-51.5,47.5c-24.7,0-46.3-12.5-49.5-35.2h34.2c4.2,6.9,8.5,8.2,16,8.2c10.6,0,20.4-4.9,20.4-15.9
			c0.1-2.5,0.1-5-0.2-7.6c-5.9,5.3-16.8,11.7-28.8,11.7C628.1,748.013,610.4,726.313,610.4,698.913"/>
		<path d="M781.3,676.713c-14.5,0-23.9,10.8-23.9,24.2c0,14,8.8,25.5,22.9,25.5c13.6,0,24.8-10,24.8-24.7
			S794.7,676.713,781.3,676.713 M726.5,701.313c0-28.1,20.8-52.9,48.7-52.9c12.3,0,20,4.1,28.9,12.3v-10.3h30.1v100.9h-30.6v-9.9
			c-8,7.9-18.8,12.4-30.1,12.3C745.6,753.813,726.5,733.713,726.5,701.313"/>
	</g>
	<path fill="#EC0000" d="M146.5,845.313c-0.3-7.1-2.3-14.1-5.9-20.2l-32-55.5c-2.4-4.2-4.1-8.7-5.1-13.4l-1.3,2.3
		c-7.9,13.7-7.9,30.6,0,44.4l25.6,44.4c7.9,13.7,7.9,30.6,0,44.4l-1.3,2.3c-0.9-4.7-2.7-9.2-5.1-13.4l-23.5-40.7l-15-25.9
		c-2.4-4.2-4.1-8.7-5-13.4l-1.3,2.3c-7.9,13.7-7.9,30.5-0.1,44.2l0,0l25.7,44.5c7.9,13.7,7.9,30.6,0,44.3l-1.3,2.3
		c-0.9-4.7-2.7-9.2-5.1-13.4l-32-55.4c-4.2-7.3-6.3-15.7-5.9-24.1c-34.3,9-57.9,28-57.9,50c0,30.6,45.8,55.5,102.2,55.5
		s102.2-24.8,102.2-55.5C204.4,873.313,180.7,854.313,146.5,845.313 M243,940.013c0.2-6.6,1.4-13.2,3.6-19.4
		c10.8,5,24.6,7.5,35.1,7.5c17.9,0,27.9-5.8,27.9-17.1c0-11.1-7.3-16.3-25.4-24.2l-9.8-4.2c-18-7.9-30.4-18.1-30.4-38.4
		c0-21.9,15.2-35.9,46.3-35.9c11.9-0.1,23.8,1.7,35.1,5.6c-0.4,6.5-1.7,13-3.8,19.2c-10.1-3.6-20.8-5.5-31.5-5.6
		c-16.7,0-24.4,6.5-24.4,16.7c0,10,7.5,15.7,20.9,21.5l10.4,4.4c24.4,10.4,34.6,21.3,34.6,40c0,22.1-16.7,37.2-49.4,37.2
		C266.6,947.313,253.7,945.113,243,940.013 M434.8,848.313v96h-19.4l-1.1-11.5c-5.4,8.5-13.6,13.8-27.1,13.8
		c-25.4,0-42.2-18.4-42.2-50.7c0-33.8,18-53,53.6-53C412.4,842.913,423.7,844.413,434.8,848.313 M413.7,922.313v-60.3
		c-5-0.8-10.1-1.2-15.2-1.2c-21.9,0-32.1,13.4-32.1,35c0,19.6,7.9,33.4,26.7,33.4C400.6,929.413,407.8,926.913,413.7,922.313
		 M542.9,879.713v64.5h-21.1v-60.9c0-15.2-5-22.5-26.1-22.5c-5.6,0.1-11.2,0.6-16.7,1.5v81.8h-21.1v-96c13.4-3.3,28.2-5.4,38.4-5.4
		C531.7,842.913,543,856.513,542.9,879.713 M601.6,928.513c5.6,0,11.2-1,16.5-2.9c-0.6,5.8-1.3,12.3-2.5,17.9
		c-5.7,2.2-11.8,3.2-17.9,3.1c-20.5,0-33.6-9.4-33.6-32.8v-100.9c6.9-2.1,14-3.1,21.1-3.1v36.3h33.4c-0.3,6-0.9,12-1.9,18h-31.5
		v47.1C585.2,923.713,591.3,928.513,601.6,928.513 M714.8,848.213v96h-19.4l-1.2-11.5c-5.4,8.5-13.6,13.8-27.1,13.8
		c-25.3,0-42.2-18.4-42.2-50.7c0-33.8,18-53,53.6-53C692.4,842.813,703.7,844.413,714.8,848.213 M693.7,922.313v-60.3
		c-5-0.8-10.1-1.2-15.2-1.2c-21.9,0-32.1,13.4-32.1,35c0,19.6,7.9,33.4,26.7,33.4C680.6,929.413,687.8,926.913,693.7,922.313
		 M822.9,879.813v64.5h-21.1v-60.9c0-15.2-5-22.5-26.1-22.5c-5.6,0.1-11.2,0.6-16.7,1.5v81.8h-21.1v-96c13.4-3.3,28.2-5.4,38.4-5.4
		C811.6,842.913,823,856.513,822.9,879.813 M930.1,809.813v134.4h-19.4l-1.2-12.3c-5.4,9-13.6,14.6-27.5,14.6
		c-25.3,0-42.2-18.4-42.2-50.7c0-33.8,18-53,53.6-53c5.3,0,10.6,0.5,15.8,1.5v-31.7C915.8,810.413,923.2,809.813,930.1,809.813
		 M909.2,921.913v-59.1c-5.6-1.2-11.2-1.9-16.9-1.9c-20.9,0-30.9,13-30.9,35c0,19.6,7.9,33.4,26.7,33.4
		C895.7,929.313,903.2,926.813,909.2,921.913 M1036.3,903.113h-67.4c2.7,17.1,12.7,25.3,31.5,25.3c11.7,0,23.2-2.5,33.8-7.3
		c-0.8,5.6-1.9,12.9-3.3,19.2c-9.6,4.4-19.8,6.1-31.1,6.1c-35.3,0-52.4-19.6-52.4-52.4c0-28.6,13.2-51.3,46.9-51.3
		c30.1,0,43.2,19.8,43.2,44C1037.5,892.313,1037.1,897.713,1036.3,903.113 M968.5,885.513h47.6c0-15.8-8.5-25-23-25
		C978.1,860.513,970.3,869.113,968.5,885.513 M1110.3,843.613c0,6.3-0.8,14-1.9,18c-5.3-0.6-10.6-0.8-15.9-0.8
		c-5.2,0-10.4,0.4-15.6,1.2v82.2h-21.1v-96c9-3.1,24.2-5.4,36.1-5.4C1098,842.713,1104.2,843.013,1110.3,843.613"/>
</g>
</svg>
