<?xml version="1.0" encoding="utf-8"?>
<!-- Generator: Adobe Illustrator 22.0.0, SVG Export Plug-In . SVG Version: 6.00 Build 0)  -->
<svg version="1.1" id="RTSH_film" xmlns="http://www.w3.org/2000/svg" xmlns:xlink="http://www.w3.org/1999/xlink" x="0px" y="0px"
	 viewBox="0 0 1000 600" style="enable-background:new 0 0 1000 600;" xml:space="preserve">
<style type="text/css">
	.st0{fill:#658CB4;}
	.st1{fill:#C54D5B;}
	.st2{fill:#59244E;}
	.st3{fill:#38466D;}
	.st4{fill:#8C3857;}
	.st5{fill:#DEA65D;}
	.st6{fill:#58595B;}
</style>
<title>final_1tetor2020_(color_txGRI)__RTSH_FILM__bert_</title>
<g id="_Group_">
	<polygon id="_Path_" class="st0" points="479.7,75 106.6,75 106.6,448.6 158,448.6 158,126.3 479.7,126.3 	"/>
	<path id="_Path_2" class="st0" d="M248.9,374.8h-19.7v25.9h20.1c9.7,0,15.2-5.1,15.2-12.7v-0.3
		C264.5,379.2,258.6,374.8,248.9,374.8"/>
	<path id="_Compound_Path_" class="st0" d="M531.1,447h-19.8v-36.2h-36.5V447h-19.8v-90.1h19.8v35.6h36.5v-35.6h19.8V447z
		 M433.9,441.2c-6.2,4.7-14.2,7-23.9,7c-10.8,0-19.5-2.5-26.2-7.6c-6.7-5-10.1-13.1-10.2-22.2h19c0.4,8.2,7.5,13.7,17.3,13.7
		c8.7,0,14.3-3.4,14.3-10.4c0-6.4-5.2-9-18.7-12.4c-7.8-1.9-11.8-3.1-17.6-5.9c-8-4-11.9-9.6-12.4-20.2c-0.2-7.4,2.9-14.6,8.4-19.6
		c5.6-5.3,13.6-7.9,23.9-7.9c10,0,18,2.5,24,7.4s9.3,11.6,9.6,20.2h-19.1c-0.1-7.7-5.5-11.5-14.1-11.5c-8.4,0-13.5,4.4-13.5,10.8
		c-0.2,2.9,1.3,5.7,3.8,7.2c2.5,1.4,7.2,3,13.9,4.6c10.4,2.6,18.2,5.9,23.2,9.6s7.6,9.2,7.6,16.7
		C443.3,429.7,440.2,436.5,433.9,441.2 M367.2,375.2h-27.4V447H320v-71.8h-27.5v-18.3h74.7L367.2,375.2z M264.1,447l-19.3-28.8
		h-15.6V447h-19.8v-90.1h41.2c11.5,0,20.3,3.2,26.3,9.1c5,5,7.7,12.1,7.7,20.6v0.3c0,14.5-7.9,23.7-19.3,27.9l22,32.2L264.1,447z
		 M183.7,525h373.2V151.9H183.7L183.7,525z"/>
	<rect id="_Path_3" x="106.6" y="75" class="st0" width="62.1" height="51.3"/>
	<rect id="_Path_4" x="230.8" y="75" class="st1" width="62.1" height="51.3"/>
	<rect id="_Path_5" x="355" y="75" class="st2" width="62.1" height="51.3"/>
	<rect id="_Path_6" x="168.7" y="75" class="st3" width="62.1" height="51.3"/>
	<rect id="_Path_7" x="292.9" y="75" class="st4" width="62.1" height="51.3"/>
	<rect id="_Path_8" x="417.1" y="75" class="st5" width="62.1" height="51.3"/>
</g>
<path class="st6" d="M657.4,331.8c0,3.3-1.3,4.8-4,4.7c-0.9-0.1-2.3-0.1-4-0.1c-5.5,0-9.5,1.2-12,3.7s-3.7,6.2-3.7,11.3v5h18.7
	c3.2,0,4.8,1.6,4.8,4.8v7.6c0,3.2-1.6,4.8-4.8,4.8h-18.6v67.3c0,3.2-1.6,4.8-4.8,4.8h-10c-3.2,0-4.8-1.6-4.8-4.8v-67.3h-11.7
	c-3.2,0-4.8-1.6-4.8-4.8v-7.6c0-3.2,1.6-4.8,4.8-4.8h11.7v-5.3c0-10.5,2.8-18.4,8.3-23.5s14-7.8,25.2-7.8c1.7,0,3.4,0.1,5.2,0.3
	c3,0.3,4.5,2,4.5,5.1L657.4,331.8z"/>
<path class="st6" d="M673,340.6c-4.7-4.7-4.7-12.4,0-17.1c2.3-2.3,5.4-3.6,8.7-3.5c3.3-0.1,6.4,1.2,8.7,3.5c4.7,4.7,4.7,12.4,0,17.1
	c-2.3,2.3-5.5,3.5-8.7,3.5C678.4,344.2,675.3,342.9,673,340.6z M671.8,361.2c0-3.2,1.6-4.8,4.8-4.8h10c3.2,0,4.8,1.6,4.8,4.8v79.7
	c0,3.2-1.6,4.8-4.8,4.8h-10c-3.2,0-4.8-1.6-4.8-4.8V361.2z"/>
<path class="st6" d="M713.5,324.7c0-3.2,1.6-4.8,4.8-4.8h10c3.2,0,4.8,1.6,4.8,4.8v116.2c0,3.2-1.6,4.8-4.8,4.8h-10
	c-3.2,0-4.8-1.6-4.8-4.8V324.7z"/>
<path class="st6" d="M859.2,354.3c9.9,0,18.1,3.3,24.5,10c6.5,6.7,9.7,15.4,9.7,26.3v50.3c0,3.2-1.6,4.8-4.8,4.8h-10.1
	c-3.2,0-4.8-1.6-4.8-4.8v-48.5c0-6-1.7-10.9-5.1-14.8c-3.4-3.8-8.3-5.9-13.4-5.7c-5.6,0-10.6,2.5-15,7.4c-4.3,4.7-6.7,11-6.6,17.4
	v44.3c0,3.2-1.6,4.8-4.8,4.8h-10.1c-3.2,0-4.8-1.6-4.8-4.8v-48.5c0-6-1.7-10.9-5.1-14.8c-3.4-3.8-8.3-5.9-13.4-5.7
	c-5.6,0-10.6,2.4-15,7.1c-4.4,4.8-6.8,11.1-6.6,17.6v44.3c0,3.2-1.6,4.8-4.8,4.8h-10.1c-3.2,0-4.8-1.6-4.8-4.8v-79.7
	c0-3.2,1.6-4.8,4.8-4.8h10.1c3.2,0,4.8,1.6,4.8,4.8v6.8c3-4.1,6.9-7.5,11.4-10c4.4-2.4,9.3-3.7,14.2-3.7c6.4-0.1,12.6,1.6,18.1,4.9
	c5.3,3.2,9.6,8,12.3,13.6c2.9-5.5,7.2-10.2,12.4-13.5C847.1,356,853.1,354.3,859.2,354.3z"/>
</svg>
