<?xml version="1.0" encoding="utf-8"?>
<!-- Generator: Adobe Illustrator 22.0.0, SVG Export Plug-In . SVG Version: 6.00 Build 0)  -->
<svg version="1.1" id="RTSH_3" xmlns="http://www.w3.org/2000/svg" xmlns:xlink="http://www.w3.org/1999/xlink" x="0px" y="0px"
	 viewBox="0 0 1000 600" style="enable-background:new 0 0 1000 600;" xml:space="preserve">
<style type="text/css">
	.st0{fill:#58595B;}
	.st1{fill:#BC242C;}
</style>
<title>final_1tetor2020_(color_txGRI)__RTSH_3__bert_</title>
<path class="st0" d="M712.4,445.2c-12-3.7-21.6-8.8-28.9-15.3l17.9-34.3c5.6,5.3,12.2,9.3,19.4,11.9c7.9,2.9,16.2,4.3,24.6,4.3
	c12.9,0,23.1-2.8,30.5-8.5c7.4-5.7,11.2-13.3,11.1-22.9c0-9.4-3.4-16.8-10.3-22.3c-6.8-5.5-16-8.2-27.6-8.2c-10-0.1-19.9,2.3-28.8,7
	l-12.3-23.8l55.4-63.7h-69.5v-38.7h129.4v29l-52.8,56c11.1,1.2,20.9,4.2,29.3,9.1c10.7,4.2,19.8,11.6,26.1,21.2
	c6.3,9.6,9.4,20.8,9.4,33.8c0,14.1-3.4,26.5-10.3,37.3s-16.7,19.1-29.5,25c-12.8,5.9-27.8,8.8-45,8.8
	C737.8,450.9,724.8,449,712.4,445.2z"/>
<polygon id="_Path_" class="st1" points="164.5,75 164.5,448.6 215.8,448.6 215.8,126.3 537.6,126.3 537.6,75 "/>
<g id="_Group_">
	<path id="_Path_2" class="st1" d="M306.8,374.8h-19.7v25.9h20.1c9.7,0,15.2-5.1,15.2-12.8v-0.3
		C322.4,379.2,316.5,374.8,306.8,374.8"/>
	<path id="_Compound_Path_" class="st1" d="M589,447h-19.8v-36.2h-36.6V447h-19.8v-90.1h19.8v35.6h36.6v-35.6H589V447z M491.8,441.2
		c-6.2,4.7-14.2,7-23.9,7c-10.8,0-19.5-2.5-26.2-7.5c-6.7-5-10.1-13.1-10.2-22.2h19c0.4,8.2,7.5,13.7,17.3,13.7
		c8.7,0,14.3-3.4,14.3-10.5c0-6.4-5.2-9-18.7-12.4c-7.8-1.9-11.8-3.1-17.6-5.9c-8-4-11.9-9.6-12.4-20.2c-0.2-7.4,2.9-14.6,8.4-19.6
		c5.6-5.3,13.6-7.9,23.9-7.9c10,0,17.9,2.5,24,7.4s9.3,11.6,9.6,20.2h-19.1c-0.1-7.7-5.5-11.5-14.1-11.5c-8.4,0-13.5,4.4-13.5,10.8
		c-0.2,2.9,1.3,5.7,3.8,7.2c2.5,1.4,7.1,3,13.9,4.6c10.4,2.6,18.2,5.9,23.2,9.6s7.6,9.2,7.6,16.7
		C501.2,429.7,498.1,436.5,491.8,441.2 M425.1,375.2h-27.4V447h-19.8v-71.8h-27.4v-18.3h74.7L425.1,375.2z M322,447l-19.3-28.8
		h-15.6V447h-19.8v-90.1h41.2c11.5,0,20.3,3.2,26.3,9.1c5,5,7.7,12.1,7.7,20.6v0.3c0,14.5-7.8,23.7-19.3,27.9l22,32.2L322,447z
		 M241.6,525h373.2V151.9H241.6L241.6,525z"/>
</g>
</svg>
